# xmcd CD database file
#
# Track frame offsets:
#	150
#	40894
#	64875
#	83262
#	99902
#
# Disc length: 1650 seconds
#
# Revision: 0
# Processed by: cddbd v1.4PL0 Copyright (c) Steve Scherf et al.
# Submitted via: CDex 1.51
#
DISCID=2f067005
DTITLE=Eumir Deodato - Odisea del Espacio
DYEAR=2000
DGENRE=Jazz
TTITLE0=Also Sprach Zarathustra (2001)
TTITLE1=Banbles, bangles and beads
TTITLE2=Spirit of Summer
TTITLE3=Carly and Carole
TTITLE4=September 13
EXTD=YEAR: 2000
EXTT0=
EXTT1=
EXTT2=
EXTT3=
EXTT4=
PLAYORDER=
